<?xml version="1.0" standalone="no"?>
<!DOCTYPE svg PUBLIC "-//W3C//DTD SVG 20010904//EN"
 "http://www.w3.org/TR/2001/REC-SVG-20010904/DTD/svg10.dtd">
<svg version="1.0" xmlns="http://www.w3.org/2000/svg"
 width="350.000000pt" height="350.000000pt" viewBox="0 0 350.000000 350.000000"
 preserveAspectRatio="xMidYMid meet">
<metadata>
Created by potrace 1.14, written by Peter Selinger 2001-2017
</metadata>
<g transform="translate(0.000000,350.000000) scale(0.100000,-0.100000)"
fill="#000000" stroke="none">
<path d="M1755 3473 c-46 -11 -71 -11 -105 -3 -91 22 -216 -15 -290 -86 -18
-16 -42 -25 -73 -29 -81 -8 -143 -47 -247 -157 -52 -55 -102 -112 -111 -128
-8 -15 -27 -42 -41 -59 -15 -17 -32 -47 -39 -66 -7 -19 -16 -35 -20 -35 -4 0
-12 -14 -20 -31 -7 -18 -23 -42 -35 -54 -24 -24 -54 -111 -54 -156 0 -26 -13
-63 -50 -144 -10 -22 -21 -66 -25 -99 -4 -32 -12 -75 -19 -95 -7 -20 -14 -69
-15 -109 -1 -40 -5 -83 -8 -95 -3 -12 -7 -60 -10 -106 -4 -62 -10 -88 -23
-101 -30 -30 -42 -114 -38 -255 4 -128 15 -179 63 -290 8 -16 20 -55 29 -86 9
-31 34 -84 56 -117 33 -49 52 -66 103 -92 l63 -31 28 -116 c57 -234 130 -370
274 -508 46 -44 143 -139 215 -211 138 -138 193 -176 267 -190 78 -14 293 1
382 26 46 13 190 151 241 230 19 30 43 64 54 75 67 72 146 194 140 215 -1 3
10 21 25 41 15 19 41 64 57 100 32 71 91 241 91 262 0 8 9 44 21 80 20 63 22
67 57 73 120 22 207 145 224 316 5 50 20 124 35 166 29 87 36 175 20 272 -9
58 -14 68 -50 98 -23 19 -50 32 -67 32 -23 0 -27 4 -23 20 3 11 1 39 -5 63 -6
23 -14 92 -17 152 -3 61 -8 117 -10 125 -2 8 -7 30 -10 49 -3 18 -14 49 -24
70 -10 20 -28 68 -41 106 -13 39 -27 78 -31 87 -5 10 -9 22 -9 28 0 21 -46
109 -110 210 -37 58 -79 125 -94 150 -43 74 -49 83 -88 133 -20 27 -48 57 -61
68 -33 25 -103 54 -152 63 -60 11 -75 16 -75 29 0 6 -21 30 -47 54 -78 71
-169 88 -308 56z"/>
</g>
</svg>
